<svg xmlns="http://www.w3.org/2000/svg" viewBox="0 0 684.83 218.86"><defs><style>.cls-1{fill:#fff;}.cls-2{fill:blue;}.cls-3{fill:lime;}</style></defs><g id="Layer_2" data-name="Layer 2"><g id="Layer_1-2" data-name="Layer 1"><path class="cls-1" d="M369,102.3c-2.33-13.07-13.32-22.19-29-22.19-15.42,0-26.64,8.18-30.37,22.19Zm27.57,22.21H309c3.27,16.81,14.95,27.33,33.41,27.33,14,0,25-6.56,27.33-16.37h26.15c-4.2,24.06-25.91,39.95-53.95,39.95-33.41,0-59.33-25.94-59.33-60,0-33.17,25.92-58.85,58.86-58.85,30.84,0,55.83,23.58,55.83,57a76.45,76.45,0,0,1-.7,11"/><path class="cls-1" d="M499,116.09c0-20.09-15-34.8-34.57-34.8-12.86,0-25.47,7.24-31.08,17v35c5.61,10,18,17.28,31.08,17.28,19.61,0,34.57-14.71,34.57-34.57m25.68,0c0,33.18-24.06,59.33-54.9,59.33-15.17,0-30.35-7.47-36.43-17.76V213H407.43V58.86h25.94V74.05c6.08-10,21.26-17.52,36.43-17.52,30.84,0,54.9,26.15,54.9,59.56"/><path class="cls-1" d="M560.76,173.09H534.83V58.86h25.93Zm4-150.68a16.89,16.89,0,0,1-16.82,16.83,16.71,16.71,0,0,1,0-33.41c9.12,0,16.82,7.71,16.82,16.58"/><path class="cls-1" d="M570.84,116.09c0-33.88,25.69-59.56,59.1-59.56,27.56,0,51.16,18.44,54.66,43.2H658c-2.8-10.5-14.48-18.21-28-18.21-18.92,0-33.41,15-33.41,34.57,0,19.39,14.49,34.34,33.41,34.34,13.55,0,25.46-7.72,28.27-19.15h26.62c-3,25.91-27.09,44.14-54.89,44.14-33.41,0-59.1-25.47-59.1-59.33"/><path class="cls-2" d="M233.88,109.43A109.44,109.44,0,0,0,30.76,52.86l61.31,61.3L34.49,171.74a109.43,109.43,0,0,0,199.39-62.31"/><polygon class="cls-3" points="18.56 43.76 65.92 91.12 0 89.84 0 130.15 66.56 130.16 19.2 177.51 46.72 205.03 141.43 110.31 46.72 15.6 18.56 43.76"/></g></g></svg>